<?xml version="1.0" encoding="UTF-8" standalone="no"?>
<!-- Created with Inkscape (http://www.inkscape.org/) -->
<svg
   xmlns:svg="http://www.w3.org/2000/svg"
   xmlns="http://www.w3.org/2000/svg"
   version="1.0"
   width="569.09619"
   height="561.52838"
   id="svg2457">
  <defs
     id="defs2460" />
  <path
     d="M 298.88148,0.53869699 L 287.76932,52.965868 C 287.87957,55.422885 284.34351,69.193546 283.46878,71.690987 C 282.06369,75.702667 292.66811,75.245127 297.46592,74.643806 C 300.60655,74.250183 313.42625,78.017636 316.70575,78.552229 C 319.89274,79.071741 339.3462,82.75636 350.04666,89.280627 C 331.77179,84.642312 296.16235,79.146916 294.12303,79.80483 C 292.34708,80.377788 288.82023,104.90806 287.87886,108.94427 C 286.2927,115.74523 262.42659,152.50277 259.65163,152.63173 C 250.58522,153.05309 232.84884,209.50371 236.646,221.29262 C 241.57744,236.60309 253.19352,251.33571 252.08133,247.35492 C 251.01385,243.53417 243.99632,194.73429 259.18745,181.65104 C 261.98992,178.22775 270.86267,160.33711 270.78957,165.47042 C 270.77009,166.83811 268.02651,174.27078 262.79624,182.29303 C 239.23798,218.42681 263.44022,286.65889 272.48754,284.493 C 274.89298,283.91714 280.7413,293.95656 296.0401,301.47275 C 318.5792,312.54607 325.57835,313.73305 328.57549,313.79677 C 337.20848,313.98026 365.29749,285.12252 363.24705,275.83881 C 362.12186,270.7443 365.27258,265.07108 364.56161,263.07661 C 363.47267,260.02192 363.08284,244.52562 363.79479,231.69145 C 363.89806,229.82937 363.04866,228.20022 361.87772,228.13118 C 359.11078,227.96804 340.14351,256.87889 340.09025,260.62031 C 340.06764,262.2076 354.09411,267.19939 353.77125,268.00621 C 352.98318,269.9756 339.8804,266.46836 338.51201,268.51056 C 330.01193,281.19609 298.58596,273.5498 298.34058,264.28162 C 298.22318,259.84751 292.34751,256.5608 290.01503,255.62742 C 285.85379,253.96224 285.23577,251.1674 288.86479,250.5335 C 292.08285,249.97141 301.06183,226.77178 294.34212,221.06541 C 291.33809,218.51441 284.41568,216.7357 284.97587,214.38306 C 285.69441,211.3654 286.57322,211.09886 290.17935,212.84941 C 293.4043,214.41492 307.75523,218.50977 302.06517,212.73986 C 300.15939,210.80731 312.97363,195.49523 314.00577,192.96666 C 315.28542,189.83182 320.84286,184.26809 320.35949,186.61295 C 320.26063,187.09256 311.25231,201.85639 304.63952,223.47544 C 300.75964,236.1598 300.4459,239.68696 298.45013,244.23456 C 296.13513,249.50949 304.8135,269.26023 311.37665,269.81373 C 312.95225,269.94663 317.97932,270.56177 322.76952,270.14237 L 331.47848,269.37555 L 336.57241,255.18924 C 339.36107,247.39285 344.9658,235.23183 349.06074,228.13118 C 357.19167,214.03204 366.22497,203.74635 373.21581,187.16068 C 378.86741,173.7524 384.19241,163.01426 384.99209,163.33426 C 385.7918,163.65428 382.37427,171.62346 381.18983,173.22616 C 379.43305,175.60343 380.36556,175.73728 383.89662,177.13715 C 388.62011,179.00975 398.31926,154.96983 394.6322,150.29818 C 395.11391,149.09438 379.0719,107.02056 375.62584,104.7815 C 372.30532,102.62401 374.04195,103.58875 366.69778,97.222768 C 367.073,97.299519 378.72515,95.24029 379.5928,92.545806 C 381.42978,86.841088 372.10321,80.542507 367.14315,78.281788 C 363.10129,76.439571 354.07333,76.551143 359.30337,74.546584 C 361.6219,73.657945 382.2761,81.269837 382.9107,84.077154 C 383.65637,87.376058 394.44562,49.582988 393.59151,46.064421 C 392.20039,40.333333 392.39815,39.509576 395.50858,38.177052 C 398.26828,36.994785 415.61043,0 415.61041,0 L 298.88148,0.53869699 z M 382.9107,179.32809 C 382.58204,179.34052 381.99918,179.73615 381.15795,180.69742 C 373.51003,189.4368 372.6635,190.76591 376.28312,188.20138 C 378.16708,186.86657 378.13432,188.09558 376.22835,192.91189 C 374.80708,196.50332 371.8473,201.54917 369.87463,204.30476 C 352.8033,228.15147 354.56563,233.9486 373.54445,202.71633 C 375.63373,199.27813 385.21136,179.24114 382.9107,179.32809 z M 112.26713,271.68131 C 106.47422,273.0188 79.694061,278.95588 75.340141,281.14182 C 72.949081,282.3423 45.866204,302.98082 24.198289,303.41209 C 21.066372,303.47442 23.770435,292.43678 20.610988,291.05833 C 16.288769,289.17257 5.2711225,289.36587 0,291.06581 L 0.15423076,400.09735 C 0.16158076,401.56171 10.955551,400.71836 10.232541,400.83252 C 6.8921208,401.35996 27.780596,400.92319 29.567547,398.83477 C 33.037694,394.77918 30.736876,384.52133 33.346911,384.67353 C 35.734842,384.81276 76.179619,398.8787 81.492723,400.28395 C 81.08737,401.65187 112.53066,406.66386 141.20328,409.32219 C 156.96398,408.35723 252.05229,399.37994 253.4041,392.53218 C 255.90362,381.48171 257.73168,382.26916 249.71548,381.99223 C 245.90973,381.86076 233.83122,382.54701 227.80613,382.59473 C 215.57017,382.69166 193.56491,381.81534 186.8455,383.11763 C 184.43547,383.58472 159.01619,382.46883 162.74327,379.37563 C 164.17867,378.18436 199.73365,377.71896 214.67581,378.18619 C 232.3136,378.73772 266.31783,377.61474 275.88349,377.88163 C 288.51921,378.23418 294.28329,376.18639 295.81572,373.27957 C 297.24336,370.57153 299.77718,368.59018 299.34475,363.52821 C 297.78373,359.65385 293.2865,358.40844 291.98212,358.42341 C 259.90361,358.79163 196.8748,357.30483 191.24363,357.07777 C 186.40232,356.88257 164.92632,356.50767 165.55599,355.87801 C 166.18565,355.24834 199.74523,354.60055 209.15737,354.30333 C 235.26659,353.47891 272.95449,354.84859 279.54428,354.54709 C 283.53306,353.51298 305.04662,354.75637 305.46112,346.58004 C 305.81727,339.5547 305.01073,337.83819 296.97125,335.81567 C 289.23603,333.86969 282.79335,332.35508 246.79882,331.26948 C 223.23585,330.55881 162.61908,329.77266 162.2174,329.38297 C 160.19064,327.41662 206.22702,327.77558 226.91608,327.65771 C 239.35262,327.58686 286.84137,331.72651 295.76623,330.28356 C 315.5263,327.08879 300.64314,316.27098 296.32053,313.96412 C 292.1232,311.85199 281.85754,308.80649 275.90875,307.8714 C 270.92765,307.08842 232.03233,303.00718 225.16745,301.91822 C 221.66626,301.36283 187.61805,300.19785 187.07356,299.65335 C 186.52907,299.10886 157.99474,299.42391 154.57075,299.76584 C 126.80027,302.53912 148.55905,298.75833 156.59559,296.52662 C 166.39897,293.80425 184.1017,290.17566 187.09437,279.45704 C 185.74914,268.24581 186.22271,268.55098 176.23949,267.99673 C 172.28425,267.93714 149.93877,268.16037 143.24189,268.51112 C 134.12458,268.98864 117.32376,271.7211 112.26713,271.68131 z M 334.21715,337.95183 C 333.21791,337.98892 324.90321,339.79616 324.52226,345.0176 C 324.02601,351.81977 336.63771,366.45455 341.64631,371.46314 C 343.5906,373.40742 381.06364,401.94883 393.10587,408.32099 C 403.15808,413.64013 426.24054,433.09395 423.47551,435.85898 C 420.77919,438.5553 392.38123,424.2765 386.40847,423.43806 C 381.43075,422.73931 355.69101,414.6208 324.90568,404.88492 C 314.84053,401.70181 311.81892,404.23444 306.94,407.24017 C 299.67246,411.71746 294.57863,418.77813 301.39324,425.90898 C 304.14865,428.79225 317.14413,434.45075 323.39685,436.59998 C 332.99792,439.90013 361.17187,453.97913 364.30494,455.24204 C 367.43797,456.50493 388.44433,461.36111 387.91185,463.85376 C 385.90995,465.15682 383.31269,467.2763 378.62175,468.97725 C 374.27513,470.55335 371.47705,481.43064 371.77862,484.12772 C 372.20938,487.9803 385.86765,490.28096 388.66003,491.77392 C 391.27947,493.17441 443.08669,495.24353 446.62859,497.21429 C 449.52344,498.82503 463.46558,524.36064 478.65589,531.47717 C 471.82033,532.90466 437.0696,497.13441 441.43554,499.01819 C 443.90777,500.08489 377.47548,494.26067 376.69721,495.13956 C 374.69223,497.40377 385.82846,518.60826 390.66705,521.08024 C 394.74287,523.16253 442.25191,514.86053 447.93966,514.86114 C 451.60325,514.86155 451.43604,515.45961 455.36902,515.79253 C 459.302,516.12546 392.00079,521.24306 394.23845,524.81869 C 398.65946,531.88315 401.98961,548.79168 407.58952,547.2632 C 408.30191,547.06875 470.17278,529.88567 474.75491,531.43768 C 480.89647,533.51789 411.62888,545.76888 412.80842,549.48939 C 413.90084,552.93511 419.23011,552.08984 422.24906,553.16176 C 423.76765,553.70096 518.64374,563.1474 523.64722,556.09572 C 526.32162,552.32653 546.75652,543.57456 549.77936,543.97562 C 556.34188,539.59287 553.4211,550.92778 556.49435,558.59438 L 569.09618,561.52836 L 568.95727,455.41033 C 568.95727,452.38704 563.0435,448.45171 557.18974,449.17306 C 549.81461,446.84867 481.89228,409.99152 462.8337,415.25057 C 453.85589,405.22082 403.36614,375.19357 398.51362,371.07047 C 391.92773,365.47456 344.79054,339.82089 342.32362,338.88298 C 340.47343,338.17953 337.21488,337.84058 334.21715,337.95183 z"
     id="path2468"
     style="fill:#000000" />
</svg>
